<svg id="Capa_1" enable-background="new 0 0 512 512" height="512" viewBox="0 0 512 512" width="512" xmlns="http://www.w3.org/2000/svg"><g><g><path d="m436 436c-41.353 0-75-33.647-75-75s33.647-75 75-75 76 33.647 76 75-34.647 75-76 75z" fill="#302933"/></g><path d="m217.284 196.923-199.393-39.434c-6.475-1.289-13.008 1.846-16.128 7.661-3.105 5.83-2.036 12.993 2.637 17.666l39.095 40.679c1.772 1.772 3.94 3.062 6.343 3.779l101.162 28.726h54.084l22.147-36.592z" fill="#cc2b20"/><path d="m241 166c-49.706 0-90 40.294-90 90v30h90 120v-120z" fill="#555a6e"/><path d="m241 166h120v120h-120z" fill="#463c4b"/><g><path d="m76 436c-41.353 0-76-33.647-76-75s34.647-75 76-75 75 33.647 75 75-33.647 75-75 75z" fill="#555a6e"/></g><g><path d="m76 316c-24.814 0-46 20.186-46 45s21.186 45 46 45 45-20.186 45-45-20.186-45-45-45z" fill="#edf1f9"/></g><g><path d="m436 316c-24.814 0-45 20.186-45 45s20.186 45 45 45 46-20.186 46-45-21.186-45-46-45z" fill="#d8dbf0"/></g><g><path d="m346 166c-8.291 0-15-6.709-15-15 0-8.276-6.724-15-15-15h-30c-8.291 0-15-6.709-15-15s6.709-15 15-15h30c24.814 0 45 20.186 45 45 0 8.291-6.709 15-15 15z" fill="#463c4b"/></g><g><path d="m422.069 366.566-44.56-111.416c-3.076-7.69.674-16.421 8.364-19.497 7.603-3.062 16.406.645 19.497 8.364l44.561 111.416c3.076 7.69-.674 16.421-8.364 19.497-7.566 3.051-16.396-.59-19.498-8.364z" fill="#463c4b"/></g><path d="m510.484 196-28.484-15 21.707-15c-18.636-52.266-69.119-90-127.707-90-5.2 0-10.02 2.695-12.759 7.119s-2.988 9.946-.659 14.59l19.146 38.291h-35.713c-4.726 0-9.175 2.225-12.012 6.006l-93.003 113.994h-90l-85.605 94.395c-4.292 4.292-5.581 10.737-3.252 16.348 2.314 5.61 7.793 9.257 13.857 9.257h165 75c8.022 0 15.055-6.29 15.002-14.312-.376-58.205 46.878-105.688 104.998-105.688h61c8.284 0 15-6.716 15-15v-30c0-5.136-.954-10.01-1.516-15z" fill="#f04b37"/><path d="m331.002 361.688c-.376-58.205 46.878-105.688 104.998-105.688h61c8.284 0 15-6.716 15-15v-30c0-5.136-.954-10.01-1.516-15l-28.484-15 21.707-15c-18.636-52.266-69.119-90-127.707-90-5.2 0-10.02 2.695-12.759 7.119s-2.988 9.946-.659 14.59l19.146 38.291h-35.713c-4.726 0-9.175 2.225-12.012 6.006l-93.003 113.994v120h75c8.022 0 15.055-6.29 15.002-14.312z" fill="#cc2b20"/><path d="m436 166c-8.291 0-15 6.709-15 15s6.709 15 15 15h74.484c-1.17-10.41-3.367-20.436-6.777-30z" fill="#ffbe40"/></g></svg>